<svg xmlns="http://www.w3.org/2000/svg" width="24" height="30">
    <path fill="#232A58" fill-rule="evenodd" d="M23.158 6.412c1.188 5.872 1.066 11.731-.129 17.586-.18.884-.353 1.695.214 2.588.63.992.077 1.922-1.171 2.101-3.351.481-6.717.885-10.078 1.319l-.033-.204c-2.267.066-4.485-.166-6.664-.74-.655-.173-1.377-.152-2.069-.215-.206-.018-.415-.009-.62-.033-2.05-.243-2.577-1.204-1.587-2.804a1.37 1.37 0 0 0 .157-.949C.227 20.603-.284 16.113.148 11.582c.208-2.178.626-4.341.989-6.506.085-.507.095-.925-.218-1.407-.852-1.31-.341-2.331 1.359-2.492C6.166.807 9.967-.319 13.949.117c1.024.112 2.05.219 3.07.355 1.423.19 2.842.405 4.263.61.203.029.407.061.609.099 1.414.265 2.056 1.128 1.332 2.175-.75 1.084-.266 2.059-.065 3.056zm-12.413 9.53c-.135-1.167-.7-1.828-1.911-2.129-1.266-.314-2.541-.571-3.84-.858.38 1.624.861 3.363 2.109 4.637.897.916 1.951 1.152 3.06.363l.251.721c.115-.735.235-1.469.34-2.206a2.124 2.124 0 0 0-.009-.528zm4.133-4.973c-.903.258-1.828.577-2.63 1.093-1.325.851-1.654 2.462-1.019 4.056.07.175-.004.429-.03.644-.086.736-.181 1.472-.273 2.208l.171.016.565-1.998c1.487.704 1.965.748 2.938.305 2.123-.966 4.384-4.747 4.412-7.28-1.395.316-2.779.57-4.134.956z"/>
</svg>
