<svg xmlns="http://www.w3.org/2000/svg" width="26" height="24">
    <path fill="#232A58" fill-rule="evenodd" d="M10.955 10.764c-.258-1.227-.507-2.43-.775-3.629-.02-.091-.16-.199-.262-.222-1.386-.309-2.31-1.124-2.715-2.511C6.726 2.768 7.562.978 9.119.288a3.445 3.445 0 0 1 4.439 1.499c.905 1.635.329 3.757-1.286 4.689-.214.123-.288.248-.257.495.142 1.123.26 2.248.403 3.371.012.095.128.216.223.251.275.104.575.145.847.257.272.112.521.28.816.444l.728-.584c-.113-.343-.259-.658-.316-.987-.252-1.462.761-2.828 2.162-2.947 1.508-.129 2.769 1.004 2.777 2.493a2.487 2.487 0 0 1-2.728 2.498c-.299-.026-.585-.174-.883-.239-.116-.026-.273-.02-.367.041-.229.147-.432.337-.667.526.518.837.689 1.73.501 2.705.081.05.16.105.245.148 1.353.689 2.708 1.373 4.058 2.068.19.098.312.102.487-.052 1.146-1.003 2.876-1.108 4.136-.27a3.496 3.496 0 0 1 1.411 3.911c-.503 1.712-2.113 2.731-3.876 2.451-1.687-.266-2.939-1.784-2.886-3.52.007-.235-.063-.36-.249-.482-1.28-.842-2.553-1.694-3.828-2.542-.081-.054-.167-.102-.258-.158-.587.615-1.275 1.026-2.135 1.152l.126 1.521c.158.039.307.068.452.112 1.083.335 1.7 1.305 1.586 2.489-.099 1.032-.965 1.846-2.091 1.965-.986.102-1.995-.589-2.299-1.576-.328-1.062.107-2.172 1.073-2.698.172-.094.237-.192.215-.385-.046-.408-.066-.819-.117-1.226-.01-.088-.088-.223-.157-.239-.649-.148-1.205-.467-1.706-.927-.075.066-.142.117-.202.178-.84.847-1.676 1.699-2.521 2.541-.149.148-.202.278-.151.494.469 1.994-.948 4.042-3.042 4.225-1.795.156-3.37-1.024-3.711-2.781-.357-1.832.71-3.568 2.492-4.054.883-.241 1.746-.145 2.547.318.214.124.356.112.553-.031a186.97 186.97 0 0 1 2.97-2.101c.173-.12.184-.229.163-.434a10.656 10.656 0 0 1-.037-1.516c.008-.198-.017-.296-.196-.383a77.28 77.28 0 0 1-2.031-1.029c-.199-.104-.348-.131-.567-.006-.618.352-1.392.114-1.746-.497a1.346 1.346 0 0 1 .399-1.796 1.294 1.294 0 0 1 1.792.302c.125.173.219.393.247.604.029.213.1.329.293.422.682.331 1.358.679 2.03 1.03.173.09.274.099.405-.085.392-.553.931-.93 1.57-1.179z"/>
</svg>
